# xmcd
#
# Track frame offsets:
# 245
# 11631
# 26697
# 42212
# 57673
# 71831
# 86845
# 97422
# 118239
# 134229
# 163787
# 180162
#
# Disc length: 2987 seconds
#
#
# Revision: 0
# Processed by: cddbd v1.5.2PL0 Copyright (c) Steve Scherf et al.
# Submitted via: FreeRIP 2.945 
#
DISCID=b60ba80c
DTITLE=Red Stick Ramblers - Made In the Shade
DYEAR=2007
DGENRE=Bluegrass
TTITLE0=Made In the Shade
TTITLE1=Evenin'
TTITLE2=Les Oiseaux Vont Chanter
TTITLE3=The Cowboy Song
TTITLE4=Katrina
TTITLE5=Don't Cry Baby
TTITLE6=Laisse Les Cajuns Danser
TTITLE7=Hot Tamale Baby
TTITLE8=Some of These Days
TTITLE9=Tes Parents Ne Veulent Plus Me Voir
TTITLE10=Unsentimental
TTITLE11=The Smeckled Suite
EXTD=
EXTT0=
EXTT1=
EXTT2=
EXTT3=
EXTT4=
EXTT5=
EXTT6=
EXTT7=
EXTT8=
EXTT9=
EXTT10=
EXTT11=
PLAYORDER=
